<svg xmlns="http://www.w3.org/2000/svg" width="205.51" height="55.663" style=""><rect id="backgroundrect" width="100%" height="100%" x="0" y="0" fill="none" stroke="none"/><g class="currentLayer" style=""><title>Layer 1</title><g id="svg_1" class="" fill="#000000" fill-opacity="1"><g id="svg_2" fill="#000000" fill-opacity="1"><g id="svg_3" fill="#000000" fill-opacity="1"><path d="M4.048000000000002,48.261995300292966 a6.176,6.176 0 0 1 -2.214,-1.2650000000000001 a2.749,2.749 0 0 1 0,-3.922 A2.63,2.63 0 0 1 3.8000000000000114,42.25299530029298 a2.63,2.63 0 0 1 1.961,0.8220000000000004 a2.762,2.762 0 0 1 0.6330000000000005,0.9490000000000004 l-0.6330000000000005,0.253 a2.646,2.646 0 0 0 -0.506,-0.7590000000000005 A2.255,2.255 0 0 0 3.8000000000000114,43.011995300292966 a2.111,2.111 0 0 0 -1.455,0.5690000000000004 a2,2 0 0 0 -0.5690000000000004,1.455 a2.111,2.111 0 0 0 0.5690000000000004,1.455 A5.756,5.756 0 0 0 3.858000000000004,47.50299530029298 a6.62,6.62 0 0 1 2.657,1.581 a3.818,3.818 0 0 1 0,5.44 A3.581,3.581 0 0 1 3.8000000000000114,55.66299530029295 a3.6790000000000003,3.6790000000000003 0 0 1 -2.72,-1.139 A3.709,3.709 0 0 1 0,52.43699530029295 l0.7000000000000004,-0.253 a2.964,2.964 0 0 0 0.8860000000000005,1.834 a2.967,2.967 0 0 0 2.214,0.9490000000000004 a2.967,2.967 0 0 0 2.214,-0.9490000000000004 a3.057,3.057 0 0 0 0,-4.428 A4.9,4.9 0 0 0 4.048000000000002,48.261995300292966 z" fill="#000000" id="svg_4" fill-opacity="1"/><path d="M42.63299908447266,43.20199468994139 V55.53599468994139 h-0.7590000000000005 V43.20199468994139 H38.584999084472656 V42.4429946899414 h7.337 v0.7590000000000005 z" fill="#000000" id="svg_5" fill-opacity="1"/><path d="M85.4549987487793,42.4429946899414 h0.7590000000000005 v9.361 a4.222,4.222 0 0 1 -1.2650000000000001,2.5300000000000002 a4.3,4.3 0 0 1 -7.337,-3.036 V42.4429946899414 h0.7590000000000005 v8.919 a3.456,3.456 0 0 0 3.479,3.479 a3.246,3.246 0 0 0 2.467,-1.012 a3.342,3.342 0 0 0 1.012,-2.467 V42.4429946899414 z" fill="#000000" id="svg_6" fill-opacity="1"/><path d="M119.42200354003907,42.4429946899414 h0 a6.763,6.763 0 0 1 5.06,1.771 a6.719,6.719 0 0 1 0,9.488 a6.706,6.706 0 0 1 -5,1.771 H118.66300354003906 V42.4429946899414 zm0,0.7590000000000005 V54.71399468994139 h0.06300000000000006 a5.991,5.991 0 0 0 4.491,-1.581 a5.956,5.956 0 0 0 0,-8.349 a6.049,6.049 0 0 0 -4.554,-1.581 z" fill="#000000" id="svg_7" fill-opacity="1"/><path d="M159.46200140380859,42.4429946899414 V55.4729946899414 H158.7030014038086 V42.4429946899414 z" fill="#000000" id="svg_8" fill-opacity="1"/><path d="M203.36000158691405,44.213995300292964 A6.719,6.719 0 1 1 198.61100158691409,42.25299530029298 A6.253,6.253 0 0 1 203.36000158691405,44.213995300292964 zm-4.681,-1.2 a5.735,5.735 0 0 0 -4.238,1.771 a5.8790000000000004,5.8790000000000004 0 0 0 -1.771,4.238 a5.735,5.735 0 0 0 1.771,4.238 a5.8790000000000004,5.8790000000000004 0 0 0 4.238,1.771 a5.735,5.735 0 0 0 4.238,-1.771 a5.8790000000000004,5.8790000000000004 0 0 0 1.771,-4.238 a5.735,5.735 0 0 0 -1.771,-4.238 A5.836,5.836 0 0 0 198.67900158691407,43.011995300292966 z" fill="#000000" id="svg_9" fill-opacity="1"/></g><g id="svg_10" fill="#000000" fill-opacity="1"><path d="M9.615000000000009,35.80599997043609 a10.9,10.9 0 0 0 7.021,-3.542 a12.574,12.574 0 0 0 3.732,-9.045 a11.353,11.353 0 0 0 -2.973,-8.286 c-1.961,-2.024 -3.8,-3.1 -5.313,-3.289 a3.684,3.684 0 0 0 3.226,-3.922 a7.222,7.222 0 0 0 -2.214,-5.25 A7.283,7.283 0 0 0 7.7169999999999845,0.5059999704361076 H0 V15.18099997043609 S14.927999999999997,12.14499997043609 14.927999999999997,23.405999970436085 C14.927999999999997,35.04199997043611 0,31.879999970436103 0,31.879999970436103 V35.80599997043609 A41.473,41.473 0 0 0 9.615000000000009,35.80599997043609 zM9.930999999999983,9.613999970436083 a2.808,2.808 0 0 1 -1.771,0.8860000000000005 H5.312999999999988 V4.6169999704360976 h2.4 A2.907,2.907 0 0 1 9.867999999999995,5.505999970436108 a2.8600000000000003,2.8600000000000003 0 0 1 0.8220000000000004,2.151 A2.485,2.485 0 0 1 9.930999999999983,9.613999970436083 z" fill="#000000" id="svg_11" fill-opacity="1"/><path d="M5.187000095367409,17.014999829769124 c-0.6330000000000005,0.4430000000000002 -0.127,2.593 0.8220000000000004,3.858 c0.3160000000000002,0.4430000000000002 0.8220000000000004,1.139 1.518,1.139 a1.409,1.409 0 0 0 1.075,-0.5690000000000004 a1.782,1.782 0 0 0 0.1900000000000001,-1.328 C8.476000095367453,18.27999982976914 5.950000095367443,16.508999829769124 5.187000095367409,17.014999829769124 z" fill="#000000" id="svg_12" fill-opacity="1"/><path d="M3.1619999513625894,18.216999654293062 c-0.9490000000000004,0.253 -1.455,3.1 -0.3160000000000002,4.617 c0.127,0.127 0.8220000000000004,1.075 1.645,0.8860000000000005 a1.274,1.274 0 0 0 0.7590000000000005,-0.506 a2.315,2.315 0 0 0 0.253,-1.771 C5.249999951362611,19.861999654293072 3.9849999513626244,18.024999654293055 3.1619999513625894,18.216999654293062 z" fill="#000000" id="svg_13" fill-opacity="1"/><path d="M1.2650000116825026,22.200999783992756 c-0.8220000000000004,0.253 -1.2650000000000001,3.289 0.06300000000000006,4.364 A1.706,1.706 0 0 0 2.7190000116825104,27.008999783992778 c0.6330000000000005,-0.1900000000000001 0.8860000000000005,-1.012 0.8860000000000005,-1.012 a1.5,1.5 0 0 0 -0.06300000000000006,-0.9490000000000004 C3.163000011682527,23.97199978399277 2.024000011682517,21.94799978399277 1.2650000116825026,22.200999783992756 z" fill="#000000" id="svg_14" fill-opacity="1"/><path d="M10.878999862670923,22.835000264644634 a1.236,1.236 0 0 0 0.9490000000000004,-0.4430000000000002 a1.464,1.464 0 0 0 0.1900000000000001,-1.2 c-0.1900000000000001,-1.455 -1.961,-2.846 -2.593,-2.467 c-0.5690000000000004,0.3160000000000002 -0.3800000000000002,2.087 0.3160000000000002,3.1630000000000003 C9.993999862670876,22.265000264644613 10.309999862670907,22.771000264644613 10.878999862670923,22.835000264644634 z" fill="#000000" id="svg_15" fill-opacity="1"/><path d="M8.476000036239611,23.402999814510338 a1.111,1.111 0 0 1 -0.253,-0.3160000000000002 a1.718,1.718 0 0 0 -1.771,-0.3800000000000002 a1.2570000000000001,1.2570000000000001 0 0 0 -0.5690000000000004,0.3800000000000002 a0.9,0.9 0 0 0 -0.127,0.3800000000000002 l-0.06300000000000006,0.4430000000000002 v0.7000000000000004 a0.8410000000000004,0.8410000000000004 0 0 1 -0.1900000000000001,0.4430000000000002 A1.2570000000000001,1.2570000000000001 0 0 1 4.937000036239624,25.42699981451034 a2.625,2.625 0 0 0 -1.2650000000000001,1.7080000000000002 a2.227,2.227 0 0 0 -0.06300000000000006,1.2 a2.424,2.424 0 0 0 1.2650000000000001,1.645 a1.823,1.823 0 0 0 0.7000000000000004,0.253 a2.069,2.069 0 0 0 1.2,-0.127 a3.414,3.414 0 0 0 1.2,-0.8860000000000005 c0.06300000000000006,-0.06300000000000006 0.06300000000000006,-0.127 0.127,-0.1900000000000001 a2.732,2.732 0 0 1 1.2650000000000001,-1.328 a2.164,2.164 0 0 1 0.7000000000000004,-0.127 h0.7590000000000005 a2.6,2.6 0 0 0 0.7000000000000004,-0.06300000000000006 a2.6390000000000002,2.6390000000000002 0 0 0 0.6330000000000005,-0.3160000000000002 a1.4,1.4 0 0 0 0.5690000000000004,-0.6330000000000005 a2.238,2.238 0 0 0 -0.3160000000000002,-2.5300000000000002 a1.637,1.637 0 0 0 -1.075,-0.3800000000000002 c-0.4430000000000002,0 -0.5690000000000004,0.1900000000000001 -1.3920000000000001,0.253 a1.7510000000000003,1.7510000000000003 0 0 1 -0.8220000000000004,-0.06300000000000006 C8.792000036239642,23.656999814510364 8.60300003623962,23.465999814510354 8.476000036239611,23.402999814510338 z" fill="#000000" id="svg_16" fill-opacity="1"/></g><g id="svg_17" fill="#000000" fill-opacity="1"><path d="M21.695999908447277,35.99200000119208 V0.38000000119208743 h4.618 V31.3110000011921 H39.02699990844724 v4.617 H21.695999908447277 z" fill="#000000" id="svg_18" fill-opacity="1"/><path d="M54.33500097656247,0.38000000119208743 L67.30100097656248,35.99200000119208 H62.43100097656247 L57.81400097656251,23.404000001192088 H48.3890009765625 L43.83500097656247,35.99200000119208 H38.9010009765625 L51.868000976562485,0.38000000119208743 zm1.834,18.407 l-3.036,-8.349 L50.10100097656249,18.787000001192098 z" fill="#000000" id="svg_19" fill-opacity="1"/><path d="M95.19700103759766,27.514999999999986 l3.416,3.1 c-4.238,3.858 -8.666,5.756 -13.346,5.756 a17.528,17.528 0 0 1 -12.84,-5.313 a17.528,17.528 0 0 1 -5.313,-12.84 a17.528,17.528 0 0 1 5.313,-12.84 A17.587,17.587 0 0 1 85.26600103759768,0 c4.681,0 9.172,1.9 13.347,5.756 l-3.416,3.1630000000000003 c-3.1630000000000003,-2.846 -6.452,-4.238 -9.931000000000001,-4.238 A13,13 0 0 0 75.71200103759764,8.665999999999997 a13,13 0 0 0 -3.985,9.551 a13.136,13.136 0 0 0 3.985,9.614 a13,13 0 0 0 9.551,3.985 C88.74500103759766,31.752999999999986 92.03400103759765,30.30000000000001 95.19700103759766,27.514999999999986 z" fill="#000000" id="svg_20" fill-opacity="1"/><path d="M105.57099682617186,19.16600000119209 V35.92800000119209 H100.95299682617187 V0.38000000119208743 h4.618 V11.580000001192104 L113.98299682617187,0.38000000119208743 h5.819 L108.85999682617188,14.991000001192106 l13.6,20.937 H116.89299682617187 L105.88699682617187,18.787000001192098 z" fill="#000000" id="svg_21" fill-opacity="1"/><path d="M129.22700115966796,24.606000001192086 V35.99200000119208 H124.60900115966797 V0.38000000119208743 h10.121 a12.581,12.581 0 0 1 7.274,3.542 a11.859,11.859 0 0 1 3.542,8.539 a11.9,11.9 0 0 1 -3.542,8.6 a11.413,11.413 0 0 1 -8.539,3.542 zm0,-19.608 V19.925000001192103 h4.175 a7.222,7.222 0 0 0 5.25,-2.214 a7.26,7.26 0 0 0 2.214,-5.313 a7.119,7.119 0 0 0 -2.214,-5.25 a7.162,7.162 0 0 0 -5.25,-2.151 z" fill="#000000" id="svg_22" fill-opacity="1"/><path d="M166.48300048828128,0.38000000119208743 h4.618 V25.42800000119209 a12.58,12.58 0 0 1 -3.542,7.274 a11.61,11.61 0 0 1 -8.539,3.542 A12.094,12.094 0 0 1 146.93800048828126,24.163000001192103 V0.38000000119208743 h4.617 V24.163000001192103 a7.464,7.464 0 1 0 14.928,0.06300000000000006 z" fill="#000000" id="svg_23" fill-opacity="1"/><path d="M204.75099603271485,31.12100000000001 a17.779,17.779 0 0 1 -12.587,5.25 a17.528,17.528 0 0 1 -12.84,-5.313 a17.528,17.528 0 0 1 -5.313,-12.84 a17.528,17.528 0 0 1 5.313,-12.84 A17.587,17.587 0 0 1 192.16399603271486,0 c4.681,0 9.172,1.9 13.346,5.756 l-3.416,3.1630000000000003 c-3.1630000000000003,-2.846 -6.452,-4.238 -9.931000000000001,-4.238 A13,13 0 0 0 182.60999603271483,8.665999999999997 a13,13 0 0 0 -3.985,9.551 a13.136,13.136 0 0 0 3.985,9.614 a13,13 0 0 0 9.551,3.985 a12.158,12.158 0 0 0 7.97,-2.5300000000000002 V18.533000000000015 h4.617 z" fill="#000000" id="svg_24" fill-opacity="1"/></g></g></g></g></svg>