<svg xmlns="http://www.w3.org/2000/svg" width="680" height="162.267" viewBox="0 0 680 162.267"><g transform="translate(-31.238 -158)"><g transform="translate(31.238 158)"><path d="M26.368,0H0L75.048,129.814l13.184-22.819Z" fill="#673ab7"/><path d="M69.906,74.034,27.311,0H1.45L61.793,104.459l8.62-14.705a14.88,14.88,0,0,0,2.028-8.113,13.663,13.663,0,0,0-2.535-7.606Z" transform="translate(27.961)" fill="#673ab7"/><path d="M44.673,4.175.05,81.759H25.911L57.858,26.487Z" transform="translate(0.964 80.508)" fill="#673ab7"/><path d="M31.9,5.4,1.475,58.137H27.843L45.084,28.219Z" transform="translate(28.443 104.13)" fill="#673ab7"/><g transform="translate(157.196 6.592)"><path d="M65.558,57.626A31.706,31.706,0,0,1,42.232,67.26a31.392,31.392,0,0,1-23.326-9.635c-6.592-6.592-9.635-14.2-9.635-23.833S12.314,16.552,18.906,9.96A32.968,32.968,0,0,1,42.232.832,38.09,38.09,0,0,1,55.416,3.368a24.5,24.5,0,0,1,10.142,7.1L59.98,16.045c-4.057-5.071-10.142-7.606-17.241-7.606a24.148,24.148,0,0,0-17.241,7.1c-5.071,4.564-7.1,10.649-7.1,18.255s2.535,13.691,7.1,18.255c5.071,4.564,10.649,7.1,17.241,7.1a24.474,24.474,0,0,0,17.748-7.1A20.928,20.928,0,0,0,66.065,39.37H42.739V31.764H73.671C73.164,33.285,71.136,52.048,65.558,57.626Zm16.227,8.113V1.846h19.269c9.635,0,17.748,3.043,23.326,8.62,6.085,6.085,8.62,13.691,8.62,22.819s-3.042,17.241-8.62,22.819c-6.085,6.085-13.691,8.62-23.326,8.62H81.784ZM89.9,57.626h11.156c7.1,0,13.184-2.028,17.241-6.085s6.592-10.142,6.592-17.748-2.028-13.184-6.592-17.748c-4.057-4.057-10.142-6.592-17.241-6.592H89.9Zm112.573-21.3c0,9.128-2.535,15.72-8.113,21.3a33.054,33.054,0,0,1-46.652,0c-6.592-6.592-9.635-14.2-9.635-23.833s3.042-17.241,9.635-23.833A31.392,31.392,0,0,1,171.031.325,38.09,38.09,0,0,1,184.215,2.86a24.5,24.5,0,0,1,10.142,7.1l-5.578,5.578c-4.057-5.071-10.142-7.606-17.241-7.606a24.148,24.148,0,0,0-17.241,7.1c-5.071,4.564-7.1,10.649-7.1,18.255s2.535,13.691,7.1,18.255c5.071,4.564,10.649,7.1,17.241,7.1a24.474,24.474,0,0,0,17.748-7.1,20.928,20.928,0,0,0,5.578-12.677H171.538v-7.1H202.47Zm29.411,29.411V1.846H251.15c9.635,0,17.748,3.043,23.326,8.62,6.085,6.085,8.62,13.691,8.62,22.819s-3.042,17.241-8.62,22.819c-6.085,6.085-13.691,8.62-23.326,8.62H231.881Zm8.113-8.113H251.15c7.1,0,13.184-2.028,17.241-6.085s6.592-10.142,6.592-17.748-2.028-13.184-6.592-17.748c-4.057-4.057-10.142-6.592-17.241-6.592H239.995V57.626Zm70.485,9.635a21.42,21.42,0,0,1-16.227-6.592,24.29,24.29,0,0,1-6.085-16.734,23.919,23.919,0,0,1,6.085-16.227,19.284,19.284,0,0,1,15.213-6.592c6.592,0,11.663,2.028,15.72,6.085s5.578,9.635,5.578,16.734v1.521H296.281c0,4.564,1.521,7.606,4.564,10.142a13.854,13.854,0,0,0,9.635,4.057c6.085,0,9.635-2.535,11.663-7.606l7.1,3.043a19.2,19.2,0,0,1-7.1,8.62A21.177,21.177,0,0,1,310.479,67.26Zm11.663-28.4c0-2.535-1.521-5.071-3.55-7.1a12.581,12.581,0,0,0-9.128-3.55,10.32,10.32,0,0,0-7.606,3.043,19.1,19.1,0,0,0-4.564,7.606ZM348,65.739,330.256,22.13h9.128L352.06,55.6,365.244,22.13h8.62L356.117,65.739H348Zm39.046,0h-8.113V1.846h37.017V9.453h-28.9v20.79H412.91v7.606H387.049v27.89Zm53.244,1.521a21.42,21.42,0,0,1-16.227-6.592,24.29,24.29,0,0,1-6.085-16.734,23.919,23.919,0,0,1,6.085-16.227,19.284,19.284,0,0,1,15.213-6.592c6.592,0,11.663,2.028,15.72,6.085s5.578,9.635,5.578,16.734v1.521H426.094c0,4.564,1.521,7.606,4.564,10.142a13.854,13.854,0,0,0,9.635,4.057c6.085,0,9.635-2.535,11.663-7.606l7.1,3.043a19.2,19.2,0,0,1-7.1,8.62A19.92,19.92,0,0,1,440.293,67.26Zm11.663-28.4c0-2.535-1.521-5.071-3.55-7.1a12.581,12.581,0,0,0-9.128-3.55,10.32,10.32,0,0,0-7.606,3.043,19.1,19.1,0,0,0-4.564,7.606Zm30.425,28.4c-5.071,0-8.62-1.014-12.17-3.55-3.042-2.535-5.578-5.071-7.1-9.128l7.1-3.043c2.535,5.578,6.085,8.113,11.663,8.113a10.814,10.814,0,0,0,6.085-1.521,5.325,5.325,0,0,0,2.535-4.564c0-3.043-2.028-4.564-6.085-5.578l-8.62-2.028a20.351,20.351,0,0,1-8.113-4.057c-2.535-2.028-3.55-4.564-3.55-8.113,0-4.057,1.521-7.1,5.071-9.128a20.214,20.214,0,0,1,12.17-3.55,21.44,21.44,0,0,1,10.142,2.535c3.042,1.521,5.071,4.057,6.592,7.606L491,34.3c-1.521-4.057-5.071-5.578-10.142-5.578a10.814,10.814,0,0,0-6.085,1.521,5.171,5.171,0,0,0-2.535,4.057c0,2.535,2.028,4.057,5.578,5.071l8.62,2.028c4.057,1.014,7.1,2.535,9.128,5.071a12.178,12.178,0,0,1,3.043,7.606,11.777,11.777,0,0,1-4.564,9.635A18.774,18.774,0,0,1,482.381,67.26Zm41.581-1.014c-4.564,0-8.113-1.014-10.649-3.55s-3.55-6.085-3.55-10.142V29.736h-7.606V22.13h7.606V8.945h8.113V22.13h10.649v7.606H517.877V52.048c0,4.564,2.028,7.1,6.085,7.1a7.519,7.519,0,0,0,3.55-.507l3.043,7.1c-1.521,0-4.057.507-6.592.507Zm-493.9,84.683a24.537,24.537,0,0,1-13.691-4.564c-4.564-3.043-7.1-7.1-8.62-12.677l7.606-3.043c1.014,3.55,2.535,6.592,5.578,8.62a13.017,13.017,0,0,0,9.128,3.55,14.157,14.157,0,0,0,9.128-3.042,9.124,9.124,0,0,0,3.55-7.606c0-3.55-1.014-6.085-3.55-8.113s-6.592-3.55-12.17-5.578a27.751,27.751,0,0,1-12.677-7.1,14.6,14.6,0,0,1-4.564-10.649,15.161,15.161,0,0,1,5.578-11.663c3.55-3.55,8.113-5.071,14.2-5.071a21.486,21.486,0,0,1,13.184,4.057,17.242,17.242,0,0,1,6.592,8.62l-7.1,3.55a10.633,10.633,0,0,0-4.057-5.578,12.9,12.9,0,0,0-8.113-2.535,15.323,15.323,0,0,0-8.113,2.535,8.668,8.668,0,0,0-3.55,6.592,7.229,7.229,0,0,0,3.042,6.085,37.765,37.765,0,0,0,9.128,4.564,59.025,59.025,0,0,1,7.606,3.043c2.028,1.014,4.057,2.028,6.592,3.55a20.29,20.29,0,0,1,5.071,6.085,21.021,21.021,0,0,1,1.521,8.113,14.88,14.88,0,0,1-2.028,8.113c-1.521,2.535-3.042,4.564-5.071,5.578a19.218,19.218,0,0,1-6.592,3.043,20.347,20.347,0,0,1-7.606,1.521Zm48.173,0a21.42,21.42,0,0,1-16.227-6.592A24.29,24.29,0,0,1,55.923,127.6a23.919,23.919,0,0,1,6.085-16.227,19.283,19.283,0,0,1,15.213-6.592c6.592,0,11.663,2.028,15.72,6.085s5.578,9.635,5.578,16.734v1.521H64.036c0,4.564,1.521,7.606,4.564,10.142a13.854,13.854,0,0,0,9.635,4.057c6.085,0,9.635-2.535,11.663-7.606l7.1,3.043a19.2,19.2,0,0,1-7.1,8.62,21.177,21.177,0,0,1-11.663,3.55Zm11.663-28.4c0-2.535-1.521-5.071-3.55-7.1a12.581,12.581,0,0,0-9.128-3.55,10.32,10.32,0,0,0-7.606,3.043,19.094,19.094,0,0,0-4.564,7.606Zm27.89,28.4a18.08,18.08,0,0,1-11.663-4.057q-4.564-3.8-4.564-10.649a13.467,13.467,0,0,1,5.578-11.156,23.077,23.077,0,0,1,13.691-4.057,26.441,26.441,0,0,1,11.663,2.535v-1.014a10.32,10.32,0,0,0-3.042-7.606,11.516,11.516,0,0,0-8.113-3.043,14.037,14.037,0,0,0-6.592,1.521c-2.028,1.014-3.042,2.535-4.057,4.564l-7.606-3.043a15.851,15.851,0,0,1,6.085-7.1,21.177,21.177,0,0,1,11.663-3.55c5.578,0,10.142,1.521,13.691,5.071,3.55,3.043,5.578,7.606,5.578,13.691v26.368h-7.606v-6.085h-.507c-3.042,5.071-7.606,7.606-14.2,7.606Zm1.521-7.606a12.22,12.22,0,0,0,9.128-3.55,12.7,12.7,0,0,0,4.057-9.128c-2.535-2.028-5.578-3.043-10.142-3.043-4.057,0-7.1,1.014-9.128,2.535a7.228,7.228,0,0,0-3.042,6.085,6.241,6.241,0,0,0,2.535,5.071A10.192,10.192,0,0,0,119.309,143.323Zm44.623,7.606c-5.071,0-8.62-1.014-12.17-3.55-3.042-2.535-5.578-5.071-7.1-9.128l7.1-3.042c2.535,5.578,6.085,8.113,11.663,8.113a10.814,10.814,0,0,0,6.085-1.521,5.325,5.325,0,0,0,2.535-4.564c0-3.042-2.028-4.564-6.085-5.578l-8.62-2.028a20.35,20.35,0,0,1-8.113-4.057c-2.535-2.028-3.55-4.564-3.55-8.113,0-4.057,1.521-7.1,5.071-9.128a20.215,20.215,0,0,1,12.17-3.55,21.439,21.439,0,0,1,10.142,2.535c3.043,1.521,5.071,4.057,6.592,7.606l-7.1,3.043c-1.521-4.057-5.071-5.578-10.142-5.578a10.814,10.814,0,0,0-6.085,1.521,4.635,4.635,0,0,0-1.521,3.55c0,2.535,2.028,4.057,5.578,5.071l8.62,2.028c4.057,1.014,7.1,2.535,9.128,5.071a12.179,12.179,0,0,1,3.042,7.606,11.777,11.777,0,0,1-4.564,9.635,21.028,21.028,0,0,1-12.677,4.057Zm26.368-40.06c4.057-4.564,9.635-6.592,16.227-6.592a21.42,21.42,0,0,1,16.227,6.592,24.29,24.29,0,0,1,6.085,16.734,24.29,24.29,0,0,1-6.085,16.734c-4.057,4.564-9.635,6.592-16.227,6.592a21.42,21.42,0,0,1-16.227-6.592,24.29,24.29,0,0,1-6.085-16.734A24.29,24.29,0,0,1,190.3,110.869Zm6.085,27.89a13.021,13.021,0,0,0,10.142,4.057c4.057,0,7.1-1.521,10.142-4.057,3.042-3.043,4.057-6.592,4.057-11.156s-1.521-8.62-4.057-11.156a13.021,13.021,0,0,0-10.142-4.057c-4.057,0-7.1,1.521-10.142,4.057-3.042,3.043-4.057,6.592-4.057,11.156S193.85,136.224,196.385,138.759ZM242.53,105.8v6.085h.507a10.992,10.992,0,0,1,5.578-5.071,14.88,14.88,0,0,1,8.113-2.028c5.578,0,9.635,1.521,12.17,5.071,3.042,3.55,4.057,7.606,4.057,13.184v26.368h-8.113V124.054q0-12.17-10.649-12.17a9.854,9.854,0,0,0-8.113,4.057,14.158,14.158,0,0,0-3.042,9.128V148.9h-8.113V105.291h7.606Zm97.36,43.609H301.352v-8.113c11.663-11.663,19.269-19.269,22.312-22.819a32.631,32.631,0,0,0,6.085-7.606,10.814,10.814,0,0,0,1.521-6.085,8.926,8.926,0,0,0-3.042-6.592,10.706,10.706,0,0,0-8.113-3.043,12.456,12.456,0,0,0-7.606,2.535c-2.028,2.028-3.042,3.55-3.55,5.578l-8.113-3.043a23.947,23.947,0,0,1,6.085-9.128c3.042-3.043,7.1-4.057,12.17-4.057,5.578,0,10.142,1.521,13.691,5.071s5.578,7.606,5.578,12.17c0,6.085-3.043,12.17-9.635,18.762l-17.748,17.748h27.89v8.62Zm46.652-7.606c-4.564,6.085-10.142,9.128-17.748,9.128-7.1,0-13.184-3.042-17.748-9.128s-6.592-13.691-6.592-22.819,2.028-16.734,6.592-22.819,10.142-9.128,17.748-9.128c7.1,0,13.184,3.043,17.748,9.128s6.592,13.691,6.592,22.819S391.106,135.716,386.542,141.8Zm-17.748,1.014c5.071,0,8.62-2.028,11.663-6.592s4.564-10.142,4.564-17.241-1.521-12.677-4.564-17.241-6.592-6.592-11.663-6.592-8.62,2.028-11.663,6.592-4.564,10.142-4.564,17.241,1.521,12.677,4.564,17.241C359.666,140.787,363.723,142.816,368.794,142.816Zm50.2,6.592h-8.113V98.7l-11.663,5.071-3.042-7.1,17.748-8.113H419Z" transform="translate(-7.75 -0.325)" fill="#673ab7"/></g></g><path d="M22.236-20.675q-7.2,0-13.087-5.709a19.07,19.07,0,0,1-5.709-13.7A18.783,18.783,0,0,1,9.588-54.139a19.867,19.867,0,0,1,14.4-6.061,19.941,19.941,0,0,1,14.668,5.973,19.329,19.329,0,0,1,5.973,14.141q0,7.29-5.885,16.6L21.27,2.689l-6.5-4.48L29.615-22.344l-.176-.176A12.892,12.892,0,0,1,22.236-20.675Zm14.229-19.5a11.708,11.708,0,0,0-3.689-8.7,11.951,11.951,0,0,0-8.783-3.6,11.951,11.951,0,0,0-8.783,3.6,11.848,11.848,0,0,0-3.6,8.7,11.848,11.848,0,0,0,3.6,8.7,12.335,12.335,0,0,0,8.783,3.6,12.335,12.335,0,0,0,8.783-3.6A11.527,11.527,0,0,0,36.466-40.174Z" transform="translate(607 312)" fill="#6d41c4"/></g></svg>