<svg xmlns="http://www.w3.org/2000/svg" xmlns:xlink="http://www.w3.org/1999/xlink" width="537" height="130" viewBox="0 0 537 130"><defs><clipPath id="a"><rect width="537" height="130" transform="translate(744 337)" fill="none"/></clipPath><radialGradient id="b" cx="59.537" cy="102.374" r="31.851" gradientTransform="matrix(1.39, 0, 0, -1.39, -5.236, 36.238)" gradientUnits="userSpaceOnUse"><stop offset="0" stop-color="#bf360c" stop-opacity="0.2"/><stop offset="1" stop-color="#bf360c" stop-opacity="0.02"/></radialGradient><radialGradient id="c" cx="59.411" cy="102.654" r="30.963" gradientTransform="matrix(1.441, 0, 0, -1.441, -12.181, 88.214)" gradientUnits="userSpaceOnUse"><stop offset="0" stop-color="#263238" stop-opacity="0.2"/><stop offset="1" stop-color="#263238" stop-opacity="0.02"/></radialGradient><radialGradient id="d" cx="-0.74" cy="1" r="83.93" gradientTransform="matrix(1.601, 0, 0, -1.601, 0.625, 4.601)" gradientUnits="userSpaceOnUse"><stop offset="0" stop-color="#fff" stop-opacity="0.102"/><stop offset="1" stop-color="#fff" stop-opacity="0"/></radialGradient></defs><g transform="translate(-744 -337)"><g clip-path="url(#a)"><g transform="translate(743.7 337)"><path d="M78.7,58,45.1,0H.3l37,64L.3,128H45.1L78.6,70A11.97,11.97,0,0,0,78.7,58Z" fill="none"/><path d="M59.4,102.3,48.8,83.9,23.3,128H45.1l14.6-25.2Z" fill="#ffc107"/><path d="M78.7,58,45.1,0H.3l37,64L.3,128H45.1L78.6,70A11.97,11.97,0,0,0,78.7,58Z" fill="none"/><path d="M37.3,64,48.8,83.9,23.3,128H.3Z" fill="#0f9d58"/><path d="M78.7,58,45.1,0H.3l37,64L.3,128H45.1L78.6,70A11.97,11.97,0,0,0,78.7,58Z" fill="none"/><path d="M45.1,127H23.8l-.5,1H45.1l14.6-25.2-.3-.5Z" fill="#bf360c" opacity="0.2"/><path d="M78.7,58,45.1,0H.3l37,64L.3,128H45.1L78.6,70A11.97,11.97,0,0,0,78.7,58Z" fill="none"/><path d="M.8,127l-.5,1h23l.5-1Z" fill="#263238" opacity="0.2"/><path d="M78.7,58,45.1,0H.3l37,64L.3,128H45.1L78.6,70A11.97,11.97,0,0,0,78.7,58Z" fill="none"/><path d="M.3,128H.8L37.6,64.5l-.3-.5Z" fill="#fff" opacity="0.2"/><path d="M78.7,58,45.1,0H.3l37,64L.3,128H45.1L78.6,70A11.97,11.97,0,0,0,78.7,58Z" fill="none"/><path d="M59.7,102.8,48.8,83.9l-2.7,4.6Z" fill="url(#b)"/><path d="M78.7,58,45.1,0H.3l37,64L.3,128H45.1L78.6,70A11.97,11.97,0,0,0,78.7,58Z" fill="none"/><path d="M46.1,88.5l2.7-4.6L37.3,64l-5.5,9.5Z" fill="url(#c)"/><path d="M78.7,58,45.1,0H.3l37,64L.3,128H45.1L78.6,70A11.97,11.97,0,0,0,78.7,58Z" fill="none"/><path d="M23.3,0H.3L59.7,102.8,71.2,82.9Z" fill="#4285f4"/><path d="M78.7,58,45.1,0H.3l37,64L.3,128H45.1L78.6,70A11.97,11.97,0,0,0,78.7,58Z" fill="none"/><path d="M78.7,70a12.216,12.216,0,0,0,0-12L45.1,0H23.3L71.2,82.9Z" fill="#db4437"/><path d="M78.7,58,45.1,0H.3l37,64L.3,128H45.1L78.6,70A11.97,11.97,0,0,0,78.7,58Z" fill="none"/><path d="M71.2,82.9l-.3-.5L59.7,101.8.8,0H.3L59.7,102.8Z" fill="#1a237e" opacity="0.2"/><path d="M78.7,58,45.1,0H.3l37,64L.3,128H45.1L78.6,70A11.97,11.97,0,0,0,78.7,58Z" fill="none"/><path d="M45.1,1,78.6,59a12.059,12.059,0,0,1,1.6,5.5A11.645,11.645,0,0,0,78.6,58L45.1,0H.3L.9,1H45.1Z" fill="#fff" opacity="0.2"/><path d="M78.7,58,45.1,0H.3l37,64L.3,128H45.1L78.6,70A11.97,11.97,0,0,0,78.7,58Z" fill="none"/><path d="M71.2,82.9,78.7,70a11.645,11.645,0,0,0,1.6-6.5A12.059,12.059,0,0,1,78.7,69L71,82.4Z" fill="#3e2723" opacity="0.2"/><path d="M78.7,58,45.1,0H.3l37,64L.3,128H45.1L78.6,70A11.97,11.97,0,0,0,78.7,58Z" fill="none"/><path d="M78.7,58,45.1,0H.3l37,64L.3,128H45.1L78.6,70A11.97,11.97,0,0,0,78.7,58Z" fill="url(#d)"/></g><path d="M176.6,33.2c0,7-2.1,12.6-6.2,16.7-4.7,4.9-10.9,7.4-18.4,7.4a25.124,25.124,0,0,1-18.4-7.5A25.028,25.028,0,0,1,126,31.1,25.784,25.784,0,0,1,152,4.9,26,26,0,0,1,162.3,7a20.105,20.105,0,0,1,7.8,5.6L165.7,17c-3.3-4-7.9-6-13.7-6a19.477,19.477,0,0,0-19.5,20.1A19.477,19.477,0,0,0,152,51.2a19.072,19.072,0,0,0,14-5.6c2.4-2.4,3.8-5.8,4.2-10.1H152v-6h24.3C176.4,30.7,176.6,32,176.6,33.2Zm6.3,23V6.1h15.3c7.7,0,13.9,2.3,18.5,7,4.6,4.6,6.9,10.7,6.9,18.1s-2.3,13.5-6.9,18.1-10.8,7-18.5,7H182.9Zm6.5-6.2h8.9c5.8,0,10.4-1.7,13.8-5s5.1-8,5.1-13.9-1.7-10.6-5.1-13.9-8-5-13.8-5h-8.9Zm89-16.8c0,7-2.1,12.6-6.2,16.7-4.7,4.9-10.9,7.4-18.4,7.4a25.124,25.124,0,0,1-18.4-7.5,25.028,25.028,0,0,1-7.6-18.7,25.784,25.784,0,0,1,26-26.2A26,26,0,0,1,264.1,7a20.1,20.1,0,0,1,7.8,5.6L267.5,17c-3.3-4-7.9-6-13.7-6a19.477,19.477,0,0,0-19.5,20.1,19.477,19.477,0,0,0,19.5,20.1,19.072,19.072,0,0,0,14-5.6c2.4-2.4,3.8-5.8,4.2-10.1H253.8v-6H278A23.253,23.253,0,0,1,278.4,33.2Zm23.2,23V6.1h15.3c7.7,0,13.9,2.3,18.5,7,4.6,4.6,6.9,10.7,6.9,18.1s-2.3,13.5-6.9,18.1-10.8,7-18.5,7H301.6ZM308,50h8.9c5.8,0,10.4-1.7,13.8-5s5.1-8,5.1-13.9-1.7-10.6-5.1-13.9-8-5-13.8-5H308Zm55.4,7.3c-5.2,0-9.4-1.7-12.6-5.2A18.639,18.639,0,0,1,345.9,39a19.157,19.157,0,0,1,4.7-12.9,15.307,15.307,0,0,1,12.1-5.4c5.1,0,9.2,1.7,12.2,5,3.1,3.3,4.6,7.7,4.6,13.3l-.1,1.2H352.3c.2,3.5,1.3,6.2,3.5,8.2a10.5,10.5,0,0,0,7.5,3c4.6,0,7.7-2,9.4-5.9l5.7,2.4a15.457,15.457,0,0,1-5.5,6.7,16.352,16.352,0,0,1-9.5,2.7Zm9.2-22.4a8.687,8.687,0,0,0-2.7-5.6c-1.7-1.8-4.1-2.7-7.4-2.7a9.239,9.239,0,0,0-6.2,2.2,10.856,10.856,0,0,0-3.6,6h19.9ZM393,56.2,379.1,21.9h7l10.1,26.6h.1l10.2-26.6h6.9l-14,34.3H393Zm30.7,0h-6.4V6.1h29.3v6.2H423.8V28.8h20.6v6H423.8V56.2ZM466,57.3c-5.2,0-9.4-1.7-12.6-5.2A18.639,18.639,0,0,1,448.5,39a19.157,19.157,0,0,1,4.7-12.9,15.449,15.449,0,0,1,12.1-5.4c5.1,0,9.2,1.7,12.2,5,3.1,3.3,4.6,7.7,4.6,13.3l-.1,1.2H454.9c.2,3.5,1.3,6.2,3.5,8.2a10.5,10.5,0,0,0,7.5,3c4.6,0,7.7-2,9.4-5.9l5.7,2.4a15.457,15.457,0,0,1-5.5,6.7,16.574,16.574,0,0,1-9.5,2.7Zm9.2-22.4a8.687,8.687,0,0,0-2.7-5.6c-1.7-1.8-4.1-2.7-7.4-2.7a9.239,9.239,0,0,0-6.2,2.2,10.856,10.856,0,0,0-3.6,6h19.9Zm23.9,22.4a15.3,15.3,0,0,1-9.5-2.8,17.033,17.033,0,0,1-5.5-7l5.7-2.4c1.8,4.3,4.9,6.4,9.3,6.4a8.121,8.121,0,0,0,4.9-1.3,4.083,4.083,0,0,0,1.9-3.5c0-2.2-1.6-3.8-4.7-4.5l-6.9-1.7a16,16,0,0,1-6.2-3.2,7.593,7.593,0,0,1-2.9-6.3,8.676,8.676,0,0,1,4-7.4,16.222,16.222,0,0,1,9.6-2.8,15.776,15.776,0,0,1,8.1,2.1,11.341,11.341,0,0,1,5.1,5.9l-5.6,2.3c-1.3-3-3.9-4.6-7.8-4.6a9,9,0,0,0-4.8,1.2,3.719,3.719,0,0,0-2,3.2c0,2,1.5,3.3,4.5,4l6.8,1.6c3.2.7,5.6,2,7.1,3.9a9.52,9.52,0,0,1,2.3,6.2,9.656,9.656,0,0,1-3.8,7.7c-2.3,2-5.6,3-9.6,3Zm32.9-.5c-3.6,0-6.3-1-8.2-2.9s-2.8-4.6-2.8-8.1v-18h-6V21.9h6V11.4h6.4V21.9h8.4v5.9h-8.4V45.3c0,3.7,1.5,5.6,4.6,5.6a6.235,6.235,0,0,0,2.9-.6l2.2,5.5a10.773,10.773,0,0,1-5.1,1ZM142.5,123.3a18.816,18.816,0,0,1-10.7-3.6,16.132,16.132,0,0,1-6.8-10l5.9-2.4a13.189,13.189,0,0,0,4.3,7,10.8,10.8,0,0,0,7.3,2.8,11.626,11.626,0,0,0,7.2-2.2,7.127,7.127,0,0,0,3-6,7.671,7.671,0,0,0-3-6.5,31.061,31.061,0,0,0-9.4-4.2c-4.4-1.4-7.8-3.2-10.1-5.4a11.3,11.3,0,0,1-3.4-8.5,12.383,12.383,0,0,1,4.3-9.4c2.8-2.7,6.6-4,11.1-4a16.531,16.531,0,0,1,10.4,3.2,14.19,14.19,0,0,1,5.2,7l-5.9,2.4a8.555,8.555,0,0,0-3.1-4.4,10.859,10.859,0,0,0-12.7.1,6.167,6.167,0,0,0-2.6,5.1,5.782,5.782,0,0,0,2.4,4.7,24.6,24.6,0,0,0,7.1,3.5c2.5.8,4.5,1.6,6.2,2.3a22.09,22.09,0,0,1,5,3,12.331,12.331,0,0,1,3.9,4.6,14.354,14.354,0,0,1,1.3,6.4,13.841,13.841,0,0,1-1.5,6.5,11.652,11.652,0,0,1-4,4.5,20.729,20.729,0,0,1-5.4,2.6,21.306,21.306,0,0,1-6,.9Zm37.8,0c-5.2,0-9.4-1.7-12.6-5.2a18.639,18.639,0,0,1-4.9-13.1,19.157,19.157,0,0,1,4.7-12.9,15.307,15.307,0,0,1,12.1-5.4c5.1,0,9.2,1.7,12.2,5,3.1,3.3,4.6,7.7,4.6,13.3l-.1,1.2H169.2c.2,3.5,1.3,6.2,3.5,8.2a10.5,10.5,0,0,0,7.5,3c4.6,0,7.7-2,9.4-5.9l5.7,2.4a15.457,15.457,0,0,1-5.5,6.7,16.135,16.135,0,0,1-9.5,2.7Zm9.3-22.4a8.687,8.687,0,0,0-2.7-5.6c-1.7-1.8-4.1-2.7-7.4-2.7a9.239,9.239,0,0,0-6.2,2.2,10.856,10.856,0,0,0-3.6,6h19.9Zm22.1,22.4a13.92,13.92,0,0,1-9.1-3.1,10.623,10.623,0,0,1-3.7-8.3,10.285,10.285,0,0,1,4.3-8.8,17.853,17.853,0,0,1,10.7-3.2,18.294,18.294,0,0,1,9.3,2.1v-1a8,8,0,0,0-2.6-6.1,9.474,9.474,0,0,0-6.4-2.3,9.687,9.687,0,0,0-5.1,1.3,6.756,6.756,0,0,0-3.1,3.6L200.1,95a13.1,13.1,0,0,1,4.7-5.7c2.3-1.8,5.4-2.6,9.2-2.6a15.663,15.663,0,0,1,10.9,3.9c2.9,2.6,4.3,6.2,4.3,10.8v20.7H223v-4.8h-.3C220.4,121.4,216.6,123.3,211.7,123.3Zm1-5.9a10.15,10.15,0,0,0,7.2-3,9.146,9.146,0,0,0,3.3-7c-1.8-1.5-4.5-2.2-8.2-2.2-3.1,0-5.5.7-7.1,2a6.1,6.1,0,0,0-2.4,4.8,4.514,4.514,0,0,0,2.2,4,9.4,9.4,0,0,0,5,1.4Zm35.2,5.9a15.3,15.3,0,0,1-9.5-2.8,17.033,17.033,0,0,1-5.5-7l5.7-2.4c1.8,4.3,4.9,6.4,9.3,6.4a8.121,8.121,0,0,0,4.9-1.3,4.083,4.083,0,0,0,1.9-3.5c0-2.2-1.6-3.8-4.7-4.5l-6.9-1.7a16,16,0,0,1-6.2-3.2A7.593,7.593,0,0,1,234,97a8.676,8.676,0,0,1,4-7.4,16.222,16.222,0,0,1,9.6-2.8,15.776,15.776,0,0,1,8.1,2.1,11.341,11.341,0,0,1,5.1,5.9l-5.6,2.3c-1.3-3-3.9-4.6-7.8-4.6a9,9,0,0,0-4.8,1.2,3.719,3.719,0,0,0-2,3.2c0,2,1.5,3.3,4.6,4l6.8,1.6c3.2.7,5.6,2,7.1,3.9a9.52,9.52,0,0,1,2.3,6.2,9.656,9.656,0,0,1-3.8,7.7,14.987,14.987,0,0,1-9.7,3ZM268.8,92a18.109,18.109,0,0,1,25.4,0,19.661,19.661,0,0,1,0,26.2,18.109,18.109,0,0,1-25.4,0,18.281,18.281,0,0,1-5-13.1A18.714,18.714,0,0,1,268.8,92Zm4.8,22a10.451,10.451,0,0,0,7.9,3.4,10.6,10.6,0,0,0,7.9-3.4,12.48,12.48,0,0,0,3.3-9,12.48,12.48,0,0,0-3.3-9,10.451,10.451,0,0,0-7.9-3.4,10.6,10.6,0,0,0-7.9,3.4,12.48,12.48,0,0,0-3.3,9Q270.3,110.7,273.6,114Zm36.3-26.1v4.8h.3a11.909,11.909,0,0,1,4.4-4.2,13.323,13.323,0,0,1,6.4-1.7c4.2,0,7.5,1.3,9.7,3.9s3.4,6.1,3.4,10.5v21h-6.4v-20c0-6.3-2.8-9.5-8.5-9.5a7.959,7.959,0,0,0-6.5,3.2,11.428,11.428,0,0,0-2.5,7.4v19h-6.4V87.9Zm76.6,34.3H356v-6.4c9.1-9.2,15-15.2,17.6-18a47.85,47.85,0,0,0,4.6-5.8,9.366,9.366,0,0,0,1.2-4.9,7.089,7.089,0,0,0-2.4-5.3,8.951,8.951,0,0,0-6.4-2.3,8.355,8.355,0,0,0-5.9,2.1,10.5,10.5,0,0,0-2.9,4.6l-5.9-2.4a16.316,16.316,0,0,1,5-7.1,14.4,14.4,0,0,1,9.8-3.4,15.191,15.191,0,0,1,10.9,4.1,13.048,13.048,0,0,1,4.3,9.7c0,4.7-2.5,9.7-7.6,15l-14,14.1h22.2v6Zm36.9-6.1a17.017,17.017,0,0,1-27.8,0c-3.5-4.8-5.3-10.8-5.3-17.9s1.8-13.1,5.3-17.9a17.017,17.017,0,0,1,27.8,0c3.5,4.8,5.3,10.7,5.3,17.9S426.9,111.3,423.4,116.1Zm-14,1.1c3.8,0,6.9-1.8,9.2-5.4a24.62,24.62,0,0,0,3.5-13.5c0-5.5-1.2-10-3.5-13.5-2.3-3.6-5.4-5.4-9.2-5.4a10.3,10.3,0,0,0-9.2,5.4c-2.3,3.6-3.4,8.1-3.4,13.5s1.1,9.9,3.4,13.5S405.6,117.2,409.4,117.2Zm39.7,5h-6.4V82.3l-9.3,4.1-2.5-5.5L445,74.3h4.1v47.9Z" transform="translate(743.7 337)" fill="#fff"/><path d="M17.78-17.5A14.66,14.66,0,0,1,7.35-22.05,15.2,15.2,0,0,1,2.8-32.97a14.969,14.969,0,0,1,4.9-11.2A15.833,15.833,0,0,1,19.18-49a15.892,15.892,0,0,1,11.69,4.76,15.4,15.4,0,0,1,4.76,11.27q0,5.81-4.69,13.23L17.01,1.12,11.83-2.45,23.66-18.83l-.14-.14A10.275,10.275,0,0,1,17.78-17.5ZM29.12-33.04a9.331,9.331,0,0,0-2.94-6.93,9.525,9.525,0,0,0-7-2.87,9.525,9.525,0,0,0-7,2.87,9.443,9.443,0,0,0-2.87,6.93,9.443,9.443,0,0,0,2.87,6.93,9.831,9.831,0,0,0,7,2.87,9.831,9.831,0,0,0,7-2.87A9.186,9.186,0,0,0,29.12-33.04Z" transform="translate(1201 458)" fill="#fff"/></g></g></svg>